<?xml version="1.0" encoding="UTF-8" standalone="no"?>
<!-- Creator: CorelDRAW -->
<svg
   xmlns:dc="http://purl.org/dc/elements/1.1/"
   xmlns:cc="http://web.resource.org/cc/"
   xmlns:rdf="http://www.w3.org/1999/02/22-rdf-syntax-ns#"
   xmlns:svg="http://www.w3.org/2000/svg"
   xmlns="http://www.w3.org/2000/svg"
   xmlns:sodipodi="http://sodipodi.sourceforge.net/DTD/sodipodi-0.dtd"
   xmlns:inkscape="http://www.inkscape.org/namespaces/inkscape"
   xml:space="preserve"
   width="744"
   height="934.03174"
   style="shape-rendering:geometricPrecision; text-rendering:geometricPrecision; image-rendering:optimizeQuality; fill-rule:evenodd; clip-rule:evenodd"
   viewBox="0 0 210 297"
   id="svg2"
   sodipodi:version="0.32"
   inkscape:version="0.45.1"
   sodipodi:docname="POL Wałbrzych COA.svg"
   inkscape:output_extension="org.inkscape.output.svg.inkscape"
   sodipodi:docbase="C:\Users\Mistrz\Desktop"
   version="1.0"><metadata
   id="metadata20"><rdf:RDF><cc:Work
       rdf:about=""><dc:format>image/svg+xml</dc:format><dc:type
         rdf:resource="http://purl.org/dc/dcmitype/StillImage" /></cc:Work></rdf:RDF></metadata><sodipodi:namedview
   inkscape:window-height="480"
   inkscape:window-width="640"
   inkscape:pageshadow="2"
   inkscape:pageopacity="0.0"
   guidetolerance="10.0"
   gridtolerance="10.0"
   objecttolerance="10.0"
   borderopacity="1.0"
   bordercolor="#666666"
   pagecolor="#ffffff"
   id="base" />
 <defs
   id="defs4">
  <style
   type="text/css"
   id="style6">
   
    .fil0 {fill:#0A0B0C}
    .fil1 {fill:#DA251D}
    .fil5 {fill:#785050}
    .fil2 {fill:#E0E0FF}
    .fil3 {fill:#00923F;fill-rule:nonzero}
    .fil4 {fill:#0A0B0C;fill-rule:nonzero}
   
  </style>
 </defs>
 <g
   id="Warstwa_x0020_1"
   transform="matrix(1.1265448,0,0,1.1265448,-13.287201,-18.791912)">
  <metadata
   id="CorelCorpID_0Corel-Layer" />
  <g
   id="_73677096">
   <path
   id="_73677600"
   class="fil0"
   d="M 210,170.966 C 209.9999,231.196 162.8322,280.319 105,280.319 C 47.255,280.319 0,231.1052 0,170.966 L 0,16.681 L 210,16.681 L 210,170.966 z "
   style="fill:#0a0b0c" />
   <path
   id="_73677528"
   class="fil1"
   d="M 206.332,170.312 C 206.332,179.0798 205.3021,187.6022 203.3738,195.7605 C 197.2587,194.0578 190.9735,191.3253 184.8234,188.0669 C 171.9913,181.2686 154.1627,180.9193 140.4451,188.3431 C 134.2374,191.7026 127.4323,194.72 119.6598,196.0917 C 119.5222,193.1408 119.4641,190.1581 119.3651,187.1874 C 119.1441,180.505 118.5664,173.8821 118.5664,167.8267 C 118.5664,162.0689 120.028,155.7435 123.045,152.6586 C 123.6586,152.0494 124.5371,151.2698 125.4747,150.4186 C 125.5261,150.4863 125.5817,150.5518 125.6421,150.6149 C 128.1866,154.9104 132.1685,155.6359 133.6782,154.32 C 137.4019,156.2721 138.0211,155.6885 141.0075,154.4802 C 141.8017,154.1575 146.2607,154.2948 146.7901,154.6838 C 150.5664,157.4736 155.0122,158.8878 159.3004,154.3795 C 163.7505,155.0683 167.1746,155.4413 170.7167,152.9698 C 171.4825,152.4342 172.1192,152.0979 173.1431,151.8598 C 175.716,151.2603 177.5101,149.2898 178.5821,148.0358 C 183.3474,148.6536 185.8437,146.9876 187.5241,142.6646 C 193.1644,141.0077 195.3151,136.1974 193.3678,130.6706 C 192.7268,128.8535 192.6349,126.9381 191.9216,125.4117 C 191.1099,123.6816 189.5937,122.3863 187.4124,121.3382 C 187.4124,119.6835 186.6094,118.4866 185.544,117.4453 C 186.185,112.7082 184.7979,110.6165 181.3979,110.351 C 181.5795,109.3006 181.0435,108.9916 180.7394,107.8657 C 182.2403,105.9113 182.947,102.4396 183.2117,99.0938 C 188.3773,93.3956 191.0268,87.1846 184.9445,84.7175 C 187.1586,80.2068 190.4711,71.1879 177.9477,70.5723 C 176.8166,69.4326 176.0158,69.4143 175.075,69.2862 C 177.4445,68.3639 181.8903,64.0386 176.6458,60.4823 C 176.495,57.8048 175.6592,56.8779 172.9133,56.1593 C 172.2964,51.2642 167.0521,52.5389 165.9406,52.8272 C 165.1595,50.0468 162.5143,48.2319 161.3745,48.1565 C 160.8976,46.305 157.1913,44.2522 153.5331,43.6183 C 153.3428,34.0478 142.8695,36.7665 136.5442,39.8034 C 136.2007,38.1855 132.4158,32.677 128.7838,32.0385 C 128.3747,30.821 124.861,30.0475 121.682,30.8394 C 117.6826,28.997 114.6743,30.2466 112.2369,33.1575 L 109.8522,32.9997 C 109.3073,29.5463 102.8422,25.0036 98.6371,30.0658 C 91.1129,30.3908 88.8353,32.59 88.6537,39.6867 L 86.8925,39.6844 C 86.2755,37.9497 83.3897,35.1577 80.5652,36.2952 C 76.4673,33.5947 75.6775,34.7068 73.8615,34.1897 C 69.6979,29.1321 63.4276,32.5854 62.8565,38.6019 C 58.5485,38.8765 55.4833,40.927 54.7241,44.0005 C 49.2741,41.4488 45.0647,47.7079 44.0364,51.0537 C 39.9538,49.1405 28.8021,49.8568 30.3993,59.0588 C 29.0779,61.6105 27.1284,64.1279 29.0122,68.4874 C 26.669,70.522 26.809,74.7488 26.7083,76.4217 C 24.2317,80.6371 22.2473,85.6215 24.9668,89.5142 C 22.4573,93.4435 27.0825,97.8993 30.0777,96.9656 C 31.2351,98.103 31.3533,99.3547 33.0357,100.4853 C 31.3533,102.76 30.9397,105.8083 32.6222,108.5935 C 32.0883,109.724 31.4758,109.9208 30.966,110.454 C 27.1722,109.9459 26.4962,112.0857 24.8705,115.9578 C 21.9322,117.3882 21.8709,124.0316 20.1513,129.9864 C 18.1471,131.4533 16.3946,134.1811 21.2671,138.1219 C 18.5935,141.3465 17.8584,146.919 23.5688,148.1662 C 25.2971,152.052 26.5487,151.956 28.4062,151.7591 C 30.0558,154.3428 30.8325,155.3383 33.9678,153.535 C 36.661,155.0432 38.5645,154.7273 39.9582,154.6587 C 41.5772,162.982 47.9723,162.5563 51.7071,159.444 C 58.1198,164.1491 61.2878,162.8561 63.7951,156.8053 C 70.7722,158.3592 70.21,159.0824 73.3889,151.0704 C 77.3846,151.1188 78.5844,148.8391 79.0884,145.8985 C 82.1927,148.3221 85.6515,150.5909 86.8137,151.6127 C 90.2334,154.6221 89.6383,157.7871 90.1196,162.1398 L 90.6316,188.9931 C 90.7629,191.1686 90.8144,193.2979 90.818,195.4031 C 85.8481,194.5552 81.15,193.4848 76.0717,191.9493 C 59.9674,187.0798 59.1586,188.6549 38.7561,195.6902 C 28.4848,199.2319 17.4315,203.3046 9.6096,206.0267 C 5.7679,194.8523 3.6671,182.8272 3.6671,170.3118 L 3.6671,20.5208 L 206.3321,20.5208 L 206.3321,170.3118 L 206.332,170.312 z M 80.32,137.4768 C 80.4815,137.0206 80.676,136.5876 80.9133,136.1859 C 82.2668,135.6752 85.8799,136.1831 89.2089,135.8354 L 89.376,141.5662 C 87.5591,140.4344 83.731,138.4187 80.32,137.4768 L 80.32,137.4768 z M 118.3928,136.3365 L 118.6565,136.3415 C 119.0321,138.4665 120.1177,140.7892 121.3096,142.5952 C 120.5795,143.2506 119.646,143.9164 118.3699,144.6053 L 118.3928,136.3365 z "
   style="fill:#da251d" />
   <path
   id="_73677456"
   class="fil2"
   d="M 19.7816,227.56 C 16.2661,221.8482 13.2545,215.7679 10.8228,209.3849 C 23.0093,205.2487 32.9934,202.1874 41.0654,199.0489 C 58.9697,192.0875 60.9768,192.4613 68.7664,194.2694 C 74.0163,195.4879 83.3992,197.7148 90.7761,199.3704 C 90.6937,203.2653 90.5148,207.1223 90.4482,211.0816 C 90.3914,214.4685 89.5512,217.542 86.5145,219.5536 C 85.0311,220.5354 83.0948,220.7321 80.325,221.627 C 75.2819,223.261 70.2694,223.2838 66.5019,225.2245 C 64.3928,225.9441 62.0076,227.3927 60.4502,227.9661 C 57.5491,228.8381 56.6521,227.9798 53.751,227.4558 C 50.6191,227.6212 27.5802,227.5697 19.7816,227.56 L 19.7816,227.56 z M 202.4266,199.4982 C 199.801,209.0824 195.915,218.1172 190.9727,226.3944 C 184.9505,226.2247 178.8065,226.2525 173.0209,226.0415 C 165.2592,225.7583 153.8529,226.2725 144.9237,224.1302 C 142.8661,223.4816 140.5051,222.7618 138.5924,221.5949 C 136.5818,220.3683 134.4398,219.2607 132.1403,218.1347 C 131.379,217.764 129.8847,217.2399 128.9964,216.6266 C 128.3094,216.1507 128.2197,215.5602 127.5895,215.2741 C 125.953,214.5303 124.695,214.5212 123.7717,213.5737 C 122.2183,211.9741 121.2622,210.4385 121.2622,209.1432 C 120.5824,206.3085 120.1835,203.368 119.9319,200.3706 C 132.7196,198.1619 142.9627,190.7405 152.5173,188.0824 C 159.9861,186.0047 164.3917,186.2673 172.0156,188.0633 C 177.3146,189.3116 191.0835,195.8274 202.4266,199.4982 L 202.4266,199.4982 z "
   style="fill:#e0e0ff" />
   <path
   id="_73677384"
   class="fil3"
   d="M 100.584,247.831 C 103.3861,246.3877 107.5759,244.2578 109.6131,243.3848 C 111.9795,242.5915 114.4616,239.8695 116.9692,237.3384 C 115.5444,238.2509 113.7868,239.2554 112.4366,239.974 C 109.7258,241.4204 107.8399,241.4043 104.6631,241.9284 C 100.5192,242.6149 95.2814,243.8278 92.737,246.4757 C 94.1757,246.4757 98.3724,246.9868 100.584,247.831 L 100.584,247.831 z M 188.3621,230.5489 C 170.0466,258.2646 139.4903,276.4801 105.0003,276.4801 C 71.8267,276.4801 42.2434,259.5466 23.7299,233.5247 C 26.6644,232.5568 29.4405,232.1898 32.3449,232.6577 C 35.7711,233.2069 37.5346,232.4677 41.0133,232.0375 C 43.5425,231.724 45.9273,231.4196 48.9356,231.5409 C 54.5016,231.7674 60.072,232.1428 65.6138,231.5065 C 68.1102,231.2205 70.6022,231.1449 73.057,230.8292 C 75.6974,230.4884 78.3282,230.1068 80.2235,230.0861 C 79.4291,230.5591 78.6558,231 78.0366,231.5707 L 78.0366,231.5811 C 73.5095,233.5584 67.2206,235.5857 64.2114,236.912 C 60.4723,238.5597 54.9195,238.5208 50.6531,238.031 C 49.1807,237.864 42.2932,237.0676 40.5648,239.9076 C 43.5271,239.9076 46.4349,241.2052 49.7561,241.7316 C 54.9545,242.5531 59.8357,242.1092 66.6115,239.8642 C 72.0002,238.0768 77.3364,237.5414 82.2438,238.2988 C 86.0114,238.8824 89.105,239.6765 93.0126,239.4934 C 96.7671,239.3149 100.8912,238.2737 103.1754,235.5412 C 102.5124,234.4542 100.167,234.5571 97.1608,235.5068 C 93.4962,236.6671 87.3154,235.635 86.705,235.7563 C 91.142,232.5935 98.0732,228.3323 104.1752,229.5408 C 101.902,231.0603 97.3993,232.406 94.5748,233.8546 C 97.3293,235.9096 101.1034,234.2276 105.0329,233.5113 C 107.3534,233.0891 109.5841,233.1119 111.154,233.7479 C 109.4734,234.8045 107.1839,236.0596 104.8841,237.3284 C 102.4227,238.6856 99.9745,239.1685 97.7056,239.8322 C 94.9621,240.6377 92.4066,241.6012 89.5514,243.0681 C 86.7378,244.5167 83.2722,245.2307 80.2595,245.7707 C 72.6369,247.1416 60.7589,243.702 55.4117,251.4005 C 62.4982,249.4232 69.2807,248.7435 75.3389,249.8077 C 81.9868,250.9775 88.7118,249.731 95.6429,250.7913 C 92.6179,251.8563 88.7406,253.6765 83.271,255.1728 C 78.9938,256.3422 71.544,259.3195 70.3406,263.9034 C 78.5256,259.4638 77.7904,260.5279 86.2969,258.8917 C 88.9114,258.2943 91.8541,256.5345 94.8122,255.4955 C 97.6476,254.5045 103.7583,254.8845 106.5151,254.9966 C 109.5431,255.1225 113.0066,254.8592 116.0587,253.4267 C 113.3369,252.6303 106.7929,251.4838 104.4169,250.772 C 104.4169,249.3028 112.197,247.4148 113.4988,246.8839 C 121.2657,244.3642 127.4706,243.76 136.3752,245.2728 C 139.3333,245.6481 155.8387,246.3095 159.709,243.6548 C 153.537,243.165 144.8183,242.2038 138.2305,241.0597 C 133.5989,240.2564 129.4287,239.7322 125.6174,240.4372 C 123.4886,240.8308 121.4715,240.7713 120.535,240.6476 C 122.4964,238.8067 124.7144,238.0807 126.8983,236.8858 C 135.8883,235.2276 147.1229,234.8491 157.6491,236.3215 C 159.9486,236.8479 168.3041,236.9257 170.5992,236.9257 C 165.7531,234.1612 162.5981,233.3122 158.8546,233.065 C 153.9495,232.74 146.2918,232.7126 141.9139,230.8795 C 147.4186,229.3188 151.162,228.7397 155.2534,229.6323 C 159.5438,230.5683 166.1337,228.9297 169.8619,230.4172 C 175.3751,232.6167 179.9226,229.6275 188.3621,230.5489 L 188.3621,230.5489 z "
   style="fill:#00923f;fill-rule:nonzero" />
   <path
   id="_73677312"
   class="fil3"
   d="M 29.7345,144.758 C 32.1609,145.8587 27.6627,152.2505 26.444,145.5452 C 22.8296,146.0486 22.3724,141.0734 24.0746,139.4897 C 24.2627,139.2632 25.0832,139.8766 26.6103,139.6568 C 27.7677,142.458 27.0107,143.1033 29.7345,144.758 L 29.7345,144.758 z M 61.4917,50.9729 C 64.3097,48.1786 68.1319,45.9198 71.4728,49.2381 C 73.2493,48.1077 74.772,45.2951 77.5113,45.2951 C 86.486,45.2928 79.4563,58.2411 81.2328,61.0354 C 83.237,59.5456 84.0443,58.3235 84.46,56.7491 C 85.1361,54.1928 87.604,53.259 92.1132,53.1721 C 92.7193,47.261 95.4016,45.7117 99.3091,45.8878 C 99.7008,44.636 100.7356,41.5579 102.394,42.2193 L 102.9826,44.1646 C 104.2385,44.0044 105.1901,43.6039 105.9865,43.3498 C 108.693,42.4802 109.5353,44.6932 109.6863,46.9634 C 109.7409,47.7781 109.9707,48.602 110.5155,49.9293 C 112.7142,47.7575 113.9505,43.2263 112.268,40.5144 C 112.3948,39.3702 114.2108,37.4936 116.6,40.3038 C 118.9672,36.1319 120.5009,36.791 121.4724,40.7593 C 122.3234,40.9675 124.4457,41.0247 123.494,44.9633 C 124.636,44.366 126.592,46.8719 126.592,48.5265 C 124.2991,49.6661 121.3433,48.2976 119.5908,46.0297 C 118.5188,48.8239 120.4331,55.3301 119.361,57.5111 C 122.1856,60.3031 122.6057,61.8593 122.074,65.768 C 125.8612,63.5047 126.6773,58.8178 122.8595,56.5545 C 122.8595,55.424 122.7172,53.3369 123.8593,52.1972 C 125.45,52.1972 127.6859,52.1217 128.8915,53.3919 C 130.1036,54.6688 131.1274,57.1519 129.165,57.6804 C 131.9741,59.342 132.2827,62.3238 130.0904,64.5757 C 135.3829,70.0109 131.3397,74.7183 129.876,77.2814 C 124.5485,73.5764 121.8968,76.4667 121.3192,78.7598 C 124.0431,78.7598 128.3686,79.3251 128.3686,82.7235 C 132.8449,79.8492 136.5009,79.6364 136.5009,85.829 C 143.9462,85.4812 141.6446,91.5686 139.2904,95.8641 C 141.4148,95.9144 144.8717,97.8208 141.5483,101.5235 C 146.9108,103.8669 141.9202,107.9176 137.1178,109.6546 C 140.9029,115.2867 149.9607,107.2814 146.2369,100.9446 C 147.5585,95.9511 146.6877,94.9052 144.4998,93.2506 C 145.3639,87.1701 143.244,84.0486 140.6448,83.3644 C 139.8943,80.4602 137.8727,77.9978 133.6873,77.4371 C 136.4484,74.0455 138.1353,70.0452 134.6981,65.5918 C 135.6017,62.6648 137.3148,59.2664 140.1262,59.4105 C 144.8673,59.6532 143.163,62.2551 142.5198,63.4933 C 144.2876,62.88 152.6802,61.9736 152.6802,65.8824 C 154.8813,65.3653 157.172,61.4336 159.9987,61.9736 C 167.3063,63.0882 164.8383,70.2695 160.863,74.2012 C 167.2318,74.3499 166.1554,82.831 156.4215,81.2338 C 155.2729,79.1855 153.7327,79.3229 152.6672,80.5586 C 156.2093,84.3415 154.8813,84.9685 154.8813,88.8339 C 156.7606,88.9735 157.0932,86.9114 157.8481,85.9114 C 160.27,82.703 162.4294,86.1723 162.5017,89.3304 C 162.5125,89.8522 161.8431,91.4107 160.7907,93.2141 C 161.6747,93.6648 165.0221,92.5733 165.3568,91.4839 C 168.1814,91.4839 170.75,96.0769 169.6079,98.3448 C 172.9444,99.3952 173.5766,99.2717 173.5745,104.9998 C 178.6395,107.1121 178.692,111.5335 173.7101,116.0761 C 176.189,117.3623 176.7797,122.7311 171.6295,121.8729 C 172.4958,118.1747 174.209,116.392 168.5992,113.3002 C 170.3824,110.3869 169.1068,105.771 165.5231,103.748 C 164.3132,96.9694 157.6796,97.4066 156.9597,101.2695 C 159.8697,101.2695 161.6659,104.4574 159.4649,106.7162 C 162.0356,108.7575 159.723,109.9956 157.2398,113.5542 C 160.2875,118.3121 154.4677,120.0787 153.9558,120.5662 C 151.6892,125.0494 147.7072,120.9255 145.7578,115.6894 C 143.664,118.1998 144.9855,122.1842 148.0069,124.9212 C 150.9431,127.5713 158.1259,126.8046 156.986,121.7996 C 159.2723,119.6119 164.0747,118.4813 161.8847,114.0325 C 165.0484,110.9957 164.1666,109.1717 164.23,106.865 C 166.0745,109.0435 165.8951,110.0322 164.4817,113.3528 C 166.5821,113.8975 170.9338,116.9366 167.118,122.2093 C 171.38,126.4201 171.5025,130.9766 165.9629,133.7662 C 170.0871,134.9746 171.6908,137.984 167.781,143.0667 C 167.7482,142.1582 166.6652,141.2153 165.0877,141.4191 C 165.0877,144.1241 163.6043,146.3988 161.9306,148.0557 C 161.4559,145.25 161.2655,142.3412 157.8589,142.5426 C 157.0035,141.6113 161.4164,155.4361 149.7179,152.397 C 150.3786,151.7837 151.1465,149.7171 150.9147,148.5934 C 148.5058,149.9231 145.9853,152.4839 143.4058,149.9413 C 146.051,148.2021 151.1815,145.6962 150.0001,141.8675 C 148.2476,143.4398 139.9228,150.2252 136.3653,141.9202 C 139.1898,141.9202 141.3164,141.0963 142.9836,138.9153 C 149.7113,140.1214 153.0018,139.2357 155.4239,135.8534 C 160.8782,134.5283 165.2037,129.6653 162.2106,127.1685 C 159.8893,130.2832 157.0035,131.1116 154.1133,130.8324 C 150.8249,136.8581 147.5453,136.3316 142.4082,133.7067 C 142.2988,142.3343 129.4231,137.2882 130.1823,127.7727 C 127.8982,127.7727 126.6511,131.5052 126.6511,133.169 C 121.0238,133.169 120.6869,126.8253 117.8776,124.0309 C 116.6307,125.55 114.9339,126.6251 113.7637,127.5724 C 113.0377,129.361 112.2643,130.3993 110.4187,130.1261 C 109.3365,129.966 107.8213,131.0565 106.9492,132.455 C 106.9492,132.455 108.1169,133.845 108.7361,133.845 C 103.4434,136.1104 101.5715,131.8812 98.9808,133.0452 C 99.5037,133.5692 98.8443,134.0945 99.4635,134.6185 C 98.947,134.8326 97.0378,135.2995 96.0942,134.8322 C 96.9464,134.2981 97.3779,133.5116 97.3886,132.4727 C 100.7131,132.1166 103.8692,129.2348 106.8573,123.8273 C 114.2301,125.4997 118.7688,122.0609 119.6595,117.3466 C 125.9427,117.7718 127.4343,110.1817 127.0012,108.6637 C 128.8565,105.0891 131.2369,100.4617 125.3187,96.5621 C 124.5047,98.6904 128.5173,105.247 122.1134,105.9449 C 126.115,111.934 122.9426,114.1767 116.9522,115.8015 C 118.7138,116.8699 114.0137,122.5079 109.2859,120.0879 C 109.5856,118.0306 109.9094,116.2638 109.2334,113.6251 C 107.6297,114.9273 105.0917,116.186 104.4048,118.9871 C 103.7768,121.5479 101.4227,123.4726 99.0619,124.3285 C 99.7476,125.5065 100.3831,125.8561 101.9091,125.8553 C 101.4103,127.6155 101.2474,128.0215 99.2457,128.482 C 99.7824,127.741 99.4594,126.5419 98.2785,125.8864 C 96.3293,128.9679 95.3144,132.6619 91.1462,132.14 C 91.1461,130.8556 96.9986,127.2686 97.5304,123.3674 C 100.9566,123.3674 103.151,116.662 102.0089,113.8769 C 101.1622,116.067 97.3685,120.1977 95.3666,120.9255 C 95.1127,122.1612 94.3535,126.2234 92.5814,125.7771 C 94.2617,123.6442 96.5568,117.1884 94.7431,114.2042 C 97.2919,106.6979 95.6029,106.6086 94.2049,106.0685 C 94.2049,109.9018 91.6975,113.9592 88.8729,116.7444 C 90.6692,117.0647 91.1178,116.9938 92.8528,115.9228 C 93.4828,118.923 91.5181,121.0124 88.978,122.1842 C 91.109,127.3791 83.5674,125.9442 81.944,125.713 C 84.2499,129.3289 86.7135,129.7614 88.8357,129.6332 C 88.2888,130.2123 87.8381,132.336 84.0006,133.5397 C 84.0006,131.876 83.6242,130.6012 83.0991,128.9376 C 80.8062,131.2078 78.3383,134.3818 74.9887,136.0365 C 75.912,137.9473 76.3321,139.9544 76.3321,141.7348 C 76.3299,146.3576 74.5467,148.8292 70.5473,147.3874 C 69.9413,150.7904 70.241,156.3561 63.8043,152.8776 C 64.3293,151.6486 65.3336,151.5022 65.8674,150.969 C 62.1152,150.8064 54.9936,151.7425 51.049,148.8635 C 51.049,149.9208 51.213,150.3899 51.7294,150.9231 C 49.1389,153.5138 45.1744,150.7081 43.969,150.9963 C 45.7411,155.42 52.2785,157.9374 56.3152,153.5641 C 58.0742,153.5641 59.3519,153.6075 61.0191,153.6075 C 60.2818,161.8645 53.6481,156.9831 51.9153,155.9075 C 45.6448,161.5876 42.4899,155.4155 42.6606,151.7173 C 37.4075,152.4221 31.1699,152.4862 33.1258,141.6135 C 30.45,144.3048 28.4021,140.3617 30.4041,138.0527 C 30.5747,133.169 28.68,126.1936 32.4345,122.1727 C 33.0536,122.1727 32.9354,122.9897 33.4518,122.9897 C 34.6311,120.7424 36.5717,117.6552 36.867,115.0898 C 38.7005,116.3737 37.8888,119.1977 35.8453,121.8203 C 33.7296,124.5345 34.5151,128.3722 35.8212,129.83 C 38.1514,128.2715 37.3199,122.0331 41.1378,121.2574 C 42.5053,120.9873 42.9603,121.9987 43.6189,123.1591 C 41.9517,125.9442 41.7744,129.2991 45.2029,130.9628 C 45.6033,135.137 47.557,136.5536 49.7099,135.9838 C 54.3197,139.1305 63.4148,137.5721 57.6409,129.8781 C 56.6674,133.8784 53.9698,133.4619 53.0508,132.7204 C 50.9527,132.9057 48.6773,134.1828 48.2375,130.2329 C 46.3975,128.2189 44.3889,126.4545 47.3317,122.5823 C 44.6056,118.1335 42.8575,114.4628 45.7608,110.0139 C 46.2137,110.4189 47.417,112.0255 49.0973,112.2818 C 48.0844,115.6803 47.9859,118.3806 50.2393,119.3235 C 50.4581,124.1088 52.4469,125.9533 58.5468,124.6511 C 60.238,126.3058 63.8874,129.2716 66.7054,126.4774 C 65.7974,124.6031 64.0077,124.2186 62.5243,123.4475 C 60.7128,122.5068 60.4174,119.7126 59.2448,118.5088 C 57.3435,123.2643 52.8342,121.3923 52.762,117.4149 C 50.8498,115.337 50.7339,112.6227 54.1797,110.7119 C 50.9592,109.84 48.9244,108.2541 48.9857,105.6039 C 49.0295,103.6679 49.3315,101.3291 52.4404,99.8003 C 53.3002,100.4685 54.4335,101.2237 56.558,100.9194 C 55.801,104.3498 60.1221,107.579 63.5263,106.0342 C 65.0382,107.6018 69.0814,108.8582 69.2149,104.2034 C 67.2786,104.0913 65.8149,103.5787 64.4628,103.4596 C 60.3561,103.0934 58.6321,102.6517 59.6779,99.5669 C 58.818,98.0222 58.1617,98.0107 57.3325,97.9672 C 55.3152,97.862 54.2126,95.53 54.2147,93.3949 C 51.3289,92.0766 49.6684,89.6005 52.7402,85.3896 C 48.7823,83.735 47.371,82.513 48.4213,78.1534 C 51.8628,80.3343 53.3134,81.1948 57.28,80.6708 C 56.9431,79.1191 56.0744,77.6682 53.8078,76.2448 C 50.2875,74.0295 48.7319,68.6218 52.3791,64.9419 C 48.4213,64.9419 47.4105,68.235 46.8854,70.4137 C 44.1549,63.9418 48.966,61.4015 51.6484,59.8019 C 51.3814,58.3899 53.5715,48.444 61.4917,50.9729 L 61.4917,50.9729 z M 117.1729,127.2996 C 117.4559,129.2896 118.8826,130.7522 118.8826,132.6673 C 118.0568,133.5277 113.6943,134.1278 112.7992,133.1951 C 114.7994,130.9968 115.19,129.4737 117.1729,127.2996 L 117.1729,127.2996 z M 27.0217,136.9541 C 21.3901,140.0642 22.9894,129.2968 25.3413,125.7954 C 27.0325,126.3286 26.9647,127.8734 26.9647,130.1322 C 25.5864,131.3084 26.3258,135.4872 27.0217,136.9541 z M 27.8312,124.0676 C 22.9434,119.5318 32.1807,108.4212 36.867,112.4809 C 32.8917,116.0121 30.3757,119.2686 27.8312,124.0676 L 27.8312,124.0676 z M 43.2098,106.9724 C 42.3849,107.9474 41.4966,108.1328 40.6456,109.4167 C 37.2216,108.2472 35.3443,106.4598 35.8082,104.0477 C 36.167,102.1827 37.3309,100.1184 41.8226,102.3818 C 41.8226,104.0432 42.153,105.9312 43.2098,106.9724 z M 51.5937,96.189 C 49.4058,97.0312 46.0649,99.3014 45.4282,102.487 C 44.9032,100.7272 44.2293,99.345 44.2293,97.6812 L 42.4133,99.345 C 37.2128,95.5186 40.4443,88.5157 44.6953,86.4766 C 42.142,83.9135 41.7198,81.9843 44.5094,81.1239 C 44.424,82.1033 43.8705,85.591 47.7386,87.2846 C 47.2464,92.8776 48.336,93.761 51.5937,96.189 L 51.5937,96.189 z M 30.8745,86.2844 C 29.6317,87.3097 29.4283,87.4676 28.5575,88.7835 C 26.8641,87.0282 26.0917,84.1996 27.9208,81.6296 C 29.052,83.2315 29.4786,83.1172 30.555,83.1881 C 30.5332,84.218 30.6053,85.2477 30.8745,86.2844 L 30.8745,86.2844 z M 39.7683,86.1517 C 37.0771,88.7629 34.165,92.4222 36.587,97.6972 C 31.4893,97.8185 31.474,89.1908 34.5348,86.9939 C 33.3927,84.8221 35.2283,79.4968 36.9108,77.8352 C 35.9307,75.4896 36.4164,73.4048 40.0176,72.1095 C 39.3547,70.4389 39.5845,64.1317 43.1528,63.452 C 42.2908,67.3173 42.4331,69.4479 43.7632,73.4963 C 42.8487,74.6749 41.7876,76.5194 41.2953,78.19 C 39.6785,79.5174 37.4031,83.465 39.7683,86.1517 L 39.7683,86.1517 z M 45.8111,59.8522 C 36.867,59.9255 35.6616,64.8229 36.4251,69.6791 C 34.3576,71.2238 32.1762,74.8511 32.8523,77.2105 C 31.9619,77.7094 31.8809,77.9772 31.382,79.0688 C 30.0628,76.2517 31.6555,71.5121 32.7845,70.2695 C 30.5004,66.958 32.336,63.2598 34.6201,60.9828 C 33.8259,60.4129 32.9332,58.756 33.0536,57.2114 C 33.3775,53.0851 36.121,53.5452 37.2149,55.1265 C 39.6435,53.163 40.9869,55.6185 41.8336,58.0832 C 42.5643,58.0672 43.2535,57.4654 43.5423,56.2502 C 44.0498,54.1196 47.0144,53.433 47.0779,56.8635 L 48.336,56.7102 C 48.325,57.4036 48.4213,58.042 48.6226,58.6347 C 47.3602,58.6256 46.6447,59.1612 45.8111,59.8522 L 45.8111,59.8522 z M 49.0754,51.2452 C 48.6881,47.8949 51.2371,46.9863 53.3615,48.2976 C 51.8781,48.3342 49.8894,50.1467 49.0754,51.2452 z M 63.8808,43.8304 C 62.1984,45.485 61.6973,45.8558 60.5377,47.5928 C 59.8377,47.3113 59.2556,47.1144 58.9034,46.8169 C 57.0393,45.2493 59.0062,43.6268 60.1636,43.803 C 61.1066,43.9449 61.8461,43.0295 61.9293,42.7548 C 62.6425,40.4114 64.5,43.4688 63.8808,43.8304 z M 70.3438,43.2217 C 69.2411,43.0958 68.4404,42.7915 66.6922,43.2607 C 66.5938,40.6472 69.9369,40.6654 70.3438,43.2217 z M 79.3513,40.8233 C 76.3889,40.6059 75.9185,40.3496 73.9495,40.8233 C 71.7834,38.3014 69.1361,36.0839 66.6222,38.6768 C 67.4536,34.958 72.2188,34.4156 73.5446,38.5852 C 75.1156,38.0909 78.6621,37.8941 79.3513,40.8233 L 79.3513,40.8233 z M 83.9524,41.4413 C 83.4186,42.0569 83.2304,41.8967 82.6134,42.4207 C 82.3991,41.7434 82.259,41.2925 81.3335,41.0202 C 81.8805,40.1277 81.8783,39.5922 82.2809,38.7843 C 83.1976,39.3061 83.6658,39.7844 83.9524,41.4413 z M 90.1682,49.5997 C 89.0699,49.5243 87.6128,49.538 86.3219,49.7622 C 86.2782,48.4212 86.0506,46.0709 84.9763,44.7733 C 86.4422,42.6244 88.129,45.0091 89.9844,43.4345 C 90.818,42.2811 91.4634,41.2697 96.0185,42.9288 C 91.691,44.2401 91.1899,44.3316 90.1682,49.5997 L 90.1682,49.5997 z M 108.0322,36.3997 C 109.0977,36.3814 109.6775,36.6469 110.1829,36.9558 C 109.6163,37.1915 109.369,38.1184 109.1414,39.0474 C 105.4506,38.345 100.7881,37.8849 99.3441,39.8919 C 96.2943,39.1459 94.487,38.5509 93.1131,39.0268 C 92.3757,34.4659 95.6751,31.8067 99.9218,35.6971 C 101.4664,31.8158 105.3018,28.5479 108.0322,36.3997 L 108.0322,36.3997 z M 119.7417,34.1089 C 118.7856,34.0311 117.8579,34.0516 116.9981,34.2919 C 117.8054,33.404 118.9082,32.2392 120.3084,33.388 C 120.3084,33.388 119.7417,33.5917 119.7417,34.1089 z M 127.4431,37.2007 C 127.489,39.1711 126.7626,38.8804 125.5505,39.0704 C 124.9883,37.5897 124.601,36.7132 123.6865,35.8642 C 123.4699,33.4613 126.9749,34.1729 127.4431,37.2007 z M 135.0853,47.0664 C 135.5514,45.5011 135.2866,43.7229 134.5078,41.9333 C 137.015,43.5879 138.7653,42.574 139.3627,44.8534 C 141.0232,44.8534 141.4368,44.4735 142.5023,45.5079 C 141.0342,46.1006 140.2794,45.9748 139.0498,47.3662 C 136.2078,46.2265 132.9566,49.0482 131.2828,50.7829 C 128.9418,48.0482 131.0684,46.7345 127.78,43.4643 C 132.2717,39.9194 133.4203,48.2335 135.0853,47.0664 L 135.0853,47.0664 z M 144.1781,42.1941 C 143.5393,41.9424 142.8349,42.0522 142.1544,42.0752 C 142.1544,41.4595 142.0209,40.2237 142.0209,40.2237 C 143.4911,40.1941 144.4144,41.6129 144.1781,42.1941 L 144.1781,42.1941 z M 148.4905,47.135 C 145.9678,45.1051 147.4228,42.986 146.797,39.8805 C 149.2912,37.4043 151.9473,43.7503 148.4905,47.135 z M 145.8322,54.6619 C 146.9743,55.186 148.1622,57.4104 148.1622,59.0581 C 140.531,54.3758 138.7216,56.3417 135.9955,58.9415 C 134.8228,57.8635 134.0549,58.0077 133.7158,58.01 C 133.2279,55.9344 133.5341,47.7141 138.5794,52.3597 C 141.1895,48.4372 143.9047,47.6683 148.3264,51.9615 C 148.3264,52.7831 146.4447,54.44 145.8322,54.6619 L 145.8322,54.6619 z M 158.209,52.7052 C 158.6204,53.7694 159.7909,58.0008 157.5746,58.3647 C 155.8046,53.7557 154.5465,54.1768 151.361,55.8931 C 151.361,53.7213 151.2603,51.0483 150.2102,48.8698 C 151.6126,47.6042 153.2098,48.0871 154.6406,47.9314 C 157.0035,47.6729 158.9945,48.1008 157.6489,49.9224 C 159.3971,49.7714 160.6704,52.2109 158.209,52.7052 L 158.209,52.7052 z M 153.8486,60.6715 C 153.3409,59.8271 152.7722,59.3465 152.1005,59.2229 C 152.4002,58.9918 152.7853,58.486 152.8618,58.113 C 152.84,58.0306 155.0584,58.3899 153.8486,60.6715 z M 169.5925,59.2619 C 171.1372,58.6256 172.8831,60.5228 172.8831,62.0996 C 174.6991,62.2369 174.9988,64.6513 174.6706,65.0128 C 173.4826,61.992 171.5945,61.889 167.2668,62.4245 C 165.4093,59.9392 165.5428,60.0124 163.5912,58.6759 C 163.8909,56.1517 163.333,55.1609 163.3134,54.6756 C 165.0659,55.8062 164.9761,57.2114 164.9761,58.8682 C 166.4114,58.5867 167.7482,56.5659 167.2538,55.7467 C 169.5729,55.8633 169.3804,56.678 169.5925,59.2619 L 169.5925,59.2619 z M 172.9641,91.834 C 171.7213,91.2871 168.8946,88.9941 166.5821,89.1932 C 166.9124,87.415 166.0963,85.4354 165.6106,83.9479 C 170.3146,79.2954 170.9688,75.8648 166.2648,71.622 C 167.4156,69.9675 168.2251,68.2853 168.2251,66.5483 C 172.1589,65.5255 172.7278,68.6195 171.1809,71.6038 C 173.2792,71.6517 176.7667,74.4574 176.3116,76.9908 C 176.0796,78.2838 175.6267,79.4556 172.8416,79.9247 C 173.7036,81.3459 177.6352,85.4948 172.9641,91.834 L 172.9641,91.834 z M 181.3568,94.0722 C 182.6126,96.3836 180.7814,97.1159 179.3199,97.3333 C 177.1779,97.6537 175.1782,96.6582 174.419,95.9511 C 176.9328,90.4998 182.5864,89.0352 177.6308,81.3161 C 179.9719,80.0734 180.1797,77.1122 179.9784,74.2469 C 184.3869,74.2469 183.1093,80.7691 180.9017,82.957 C 182.1313,85.1768 180.707,87.3669 179.8099,88.9413 C 181.5471,90.1017 182.21,89.3465 183.0087,87.733 C 186.4983,87.891 185.3474,92.42 181.3568,94.0722 L 181.3568,94.0722 z M 177.9,104.1027 C 178.0093,103.4917 178.0662,102.8853 177.843,102.2811 C 178.7816,102.0064 178.8166,101.9081 179.1011,101.4434 C 181.1117,102.5923 178.7401,104.073 177.9,104.1027 L 177.9,104.1027 z M 179.9324,126.7634 C 182.2626,128.9009 181.7572,129.7843 180.0922,131.0086 C 178.3572,129.9514 178.8888,126.8161 176.6725,124.5482 C 178.8888,121.2368 180.0616,119.9643 178.9195,115.5178 C 180.3613,111.8928 184.061,112.9615 182.3195,115.996 C 181.8469,116.8199 181.0637,117.4767 180.2694,118.2525 C 186.4086,119.3967 185.4329,123.3215 179.9324,126.7634 L 179.9324,126.7634 z M 187.369,137.8787 C 187.369,135.0936 186.5923,134.4048 184.9165,132.7479 C 187.6185,130.2534 186.8856,128.5279 186.0869,125.7382 L 187.0869,123.9646 C 188.7474,125.626 187.8504,125.9648 187.3319,128.2327 C 188.8219,129.5051 190.5153,132.2169 188.8109,133.2422 C 190.0908,134.7938 190.9988,137.556 187.369,137.8787 L 187.369,137.8787 z M 180.9607,144.4078 C 181.9782,143.513 182.2603,142.2955 182.7549,140.9018 C 184.7087,141.6684 184.3016,143.9227 180.9607,144.4078 z M 167.9648,146.4903 C 174.7384,142.3435 174.745,140.0459 172.7803,132.4298 C 174.2658,130.2191 173.4345,128.2006 174.2637,126.9625 C 176.9963,128.6331 176.8563,131.6014 176.3246,135.0089 C 178.2675,134.9837 181.9432,138.762 175.7077,142.4603 C 175.327,147.9114 173.2442,149.4448 170.3889,147.3348 C 169.446,149.1472 168.8596,150.6806 165.0024,150.8408 C 166.1445,149.7102 167.4309,147.6117 167.9648,146.4903 L 167.9648,146.4903 z M 123.7675,139.8125 C 122.5947,137.54 122.6144,136.874 122.5422,135.1485 C 123.0914,135.7503 126.6248,136.4141 128.2373,136.0707 L 123.7675,139.8125 L 123.7675,139.8125 z M 139.9446,150.7676 C 138.9426,153.4084 135.9627,151.7447 134.2955,150.5913 C 127.5437,153.5641 127.6991,146.6345 132.1076,143.4077 C 131.1537,147.6643 131.4907,150.4678 132.589,150.8156 C 133.2059,149.6851 133.8644,148.2502 135,147.1036 C 136.7482,148.1723 137.772,149.1541 139.1964,149.1884 C 139.2401,149.5821 139.0738,150.2458 139.9446,150.7676 z "
   style="fill:#00923f;fill-rule:nonzero" />
   <path
   id="_73677240"
   class="fil4"
   d="M 76.3816,133.414 C 78.7759,130.5304 81.1199,126.3757 76.9383,125.3412 C 77.9945,127.5989 78.2903,129.8569 76.3816,133.414 z M 113.2023,85.1187 C 112.9967,83.059 111.9925,79.0404 108.8573,78.3149 C 111.0648,80.4935 111.8219,82.8988 111.8219,86.2079 C 117.3943,85.9676 114.7252,93.2863 114.3511,93.625 C 117.3922,93.943 119.5363,98.9343 116.4032,103.0673 C 121.8948,100.6644 118.9346,93.6776 116.633,92.7278 C 118.5145,86.3544 115.5019,86.883 113.2023,85.1187 L 113.2023,85.1187 z M 84.4274,68.4519 C 84.4274,65.1336 83.5194,61.8885 79.5681,61.8885 C 77.8856,57.9569 76.0128,55.1625 72.1381,59.0943 C 74.9539,59.0943 78.1789,58.4786 78.1789,62.8451 C 81.9923,62.8451 84.4799,64.1243 82.8697,69.1224 C 88.4225,70.0172 86.9588,75.3426 82.4561,81.0959 C 83.6047,81.0959 90.9735,79.5259 89.313,83.4576 C 94.7695,84.3547 95.0977,90.0142 89.3392,93.916 C 95.1459,94.1197 98.0338,84.6888 91.0283,82.842 C 91.9756,82.4118 88.8184,79.1598 86.3309,78.947 C 89.0482,76.2488 88.9979,68.4519 84.4274,68.4519 z M 73.3303,131.2017 C 72.1515,128.7423 77.5311,122.7017 71.7638,121.8852 C 74.1879,124.5673 73.0699,126.6796 71.9409,130.1695 C 73.1575,132.7579 72.0262,134.9937 70.9171,137.6369 C 73.2496,136.0325 74.6782,131.2295 73.3303,131.2017 L 73.3303,131.2017 z "
   style="fill:#0a0b0c;fill-rule:nonzero" />
   <path
   id="_73677168"
   class="fil5"
   d="M 93.3689,155.231 C 94.9531,155.9534 96.596,157.8635 96.3932,160.9729 C 96.202,163.9043 96.4865,167.2101 96.8709,169.8259 C 97.3991,173.4202 98.6504,180.4544 96.3277,183.5831 C 96.1356,181.2077 95.1061,179.3742 95.257,176.9627 C 95.4309,174.1828 95.0361,171.7224 94.6329,171.2844 L 94.4644,206.383 C 95.4755,206.1655 96.6553,203.4416 96.6554,201.7479 C 97.8079,207.8203 97.9292,212.8615 97.0197,216.8718 C 99.0493,216.728 98.7441,213.5845 99.5478,207.2205 C 100.161,207.6802 100.4859,209.1303 100.5767,210.9148 C 100.7282,213.8894 100.2296,217.7937 99.3321,219.5934 C 97.7263,222.7377 97.5942,222.9868 95.9297,223.3996 C 94.4957,223.7552 93.5792,223.7302 91.0848,227.3748 C 90.1299,228.77 89.0197,230.6037 87.3015,231.7875 C 90.1261,230.205 97.3378,226.7924 101.4588,225.579 C 99.4259,224.3631 99.3653,223.9481 99.6861,223.3041 C 99.9702,222.7339 100.9774,223.0815 103.0054,224.4562 C 102.5691,220.6565 102.6978,216.3859 103.2136,211.7933 C 103.6493,214.0529 104.3713,216.8371 104.8509,219.375 C 105.4856,222.7337 106.5804,225.4533 109.0653,225.2442 C 107.1615,222.677 105.6381,220.6245 106.3793,213.9649 C 106.6402,211.6197 107.4161,206.3868 106.9467,201.4941 C 106.8074,200.0418 107.1776,198.7217 107.318,197.7029 C 107.7338,201.78 107.7244,207.4154 107.514,211.9834 C 107.2831,216.9981 107.7144,220.2715 108.7906,220.4542 C 109.4098,212.1474 108.7363,203.4298 108.7983,194.2102 C 108.8438,187.4546 109.3356,181.5008 109.6517,178.7282 C 110.6659,179.9453 111.1692,183.9344 111.1306,187.9606 C 111.0954,191.6084 111.0592,196.0966 112.4326,197.8296 C 110.2773,195.6463 109.4925,196.4814 109.4517,198.3373 C 109.3923,201.0502 110.5944,206.0415 110.0022,208.1722 C 109.7082,209.2301 109.5347,210.9499 109.8441,212.7083 C 110.1856,214.649 109.8323,216.8768 109.9775,218.6668 C 110.1399,220.6672 110.0602,222.3308 111.0283,222.2254 C 111.2926,221.1008 111.5091,218.7847 111.1835,216.4027 C 110.875,214.1459 110.6956,211.7948 110.9093,210.2318 C 111.3304,211.3937 111.8845,213.7128 111.7947,215.6485 C 111.6889,217.9313 112.6078,220.0271 113.0889,221.3992 C 113.6726,223.0639 115.0521,223.5746 116.4788,224.0884 C 117.9154,224.6057 119.4797,225.272 120.931,226.0797 C 123.2975,227.3969 125.9608,227.8603 127.684,227.4601 C 124.3382,225.3556 120.2655,224.1141 118.2829,222.6866 C 116.3004,221.2593 116.4075,219.6456 115.4726,218.4629 C 114.1933,216.8445 113.7468,215.2523 113.7292,213.1334 C 113.7096,210.7626 114.2264,207.7315 114.7132,203.2647 C 114.9177,206.4766 114.3292,211.5852 115.5511,215.0721 C 116.8233,218.703 120.0324,221.0878 123.706,221.0878 C 126.8661,221.0878 129.5202,222.2261 132.0487,223.9951 C 132.1098,224.0378 136.2507,227.0712 135.9131,226.9024 C 136.1161,225.3246 134.3713,223.3761 132.2034,221.8014 C 129.5304,219.8599 127.2677,219.9876 125.3665,219.5674 C 123.4657,219.1472 121.9258,218.1786 120.6992,217.2226 C 119.1266,215.997 118.1101,213.017 117.3652,208.1238 C 116.8602,204.8071 115.6059,200.0522 115.8689,192.3939 C 114.3521,194.6692 114.8577,197.9557 114.8577,200.7366 C 113.1987,200.1442 113.4294,199.5522 113.529,197.5221 C 113.6418,195.2213 113.7376,191.4054 113.4858,189.7256 C 111.6506,177.4872 111.0329,171.0116 112.3288,160.6236 C 112.565,158.7302 110.8895,157.5228 110.0704,157.1832 C 109.4023,156.9064 108.9448,156.1494 108.9448,155.32 C 108.7982,152.3028 110.9777,147.0118 110.0169,140.465 C 109.764,141.3499 108.6686,142.3425 108.6686,143.2273 C 107.6935,141.615 107.1783,139.1057 106.8942,137.5344 C 105.6687,138.5436 106.1122,142.2162 105.8411,145.0249 C 105.6369,147.141 104.8326,148.6861 103.6921,148.6861 C 102.8073,145.526 102.8352,140.9895 102.8352,137.703 C 100.3741,140.0189 101.2567,144.8524 101.1499,148.5034 C 101.0714,151.1867 99.5761,153.0532 99.4363,154.0934 C 99.3466,148.1464 99.1543,141.0472 95.897,141.3546 C 96.5817,146.4254 98.5463,151.2584 94.5254,150.3387 C 96.3634,152.4882 95.2411,155.1198 93.3689,155.231 L 93.3689,155.231 z M 85.0398,145.8904 C 86.068,146.1949 91.4374,150.6133 92.0608,152.0126 C 92.9033,150.3276 92.2956,149.3634 91.4991,147.9686 C 90.4912,146.2037 86.2119,143.9755 86.107,144.3177 C 85.8823,144.6547 85.0398,145.2164 85.0398,145.8904 L 85.0398,145.8904 z M 80.3779,140.9476 C 80.5653,141.9771 80.5278,142.932 80.2656,143.8122 C 80.7711,143.8122 83.6918,145.2164 83.8603,145.0478 C 83.9165,144.4862 84.0288,143.5875 83.8603,143.082 C 83.1495,142.4444 80.8276,141.8457 80.3779,140.9476 z M 117.0553,150.1029 C 119.6263,149.2601 120.1433,147.7881 121.055,146.6499 C 122.3017,145.0937 122.937,145.1483 124.3905,144.9981 C 125.3146,144.9026 125.821,144.5107 126.0421,144.0368 C 125.6735,141.7095 128.8632,140.654 131.2095,139.3188 C 131.3468,140.9973 129.7541,141.8186 128.5696,142.8573 C 127.8005,143.5317 126.9575,144.5852 126.3422,145.435 C 125.7298,146.281 125.0994,146.7348 124.4252,146.9536 C 123.7388,147.1765 123.1914,147.7862 122.5035,148.4741 C 119.4528,151.5248 119.3033,150.1029 117.0553,150.1029 L 117.0553,150.1029 z M 117.28,150.7769 C 115.7073,151.0016 114.6908,151.5077 114.8648,153.2483 C 115.0276,154.8776 114.0784,155.7758 114.0784,156.9554 C 115.8758,156.9554 115.5389,155.6072 116.5498,154.5963 C 117.5043,153.6418 117.3361,152.0688 117.28,150.7769 L 117.28,150.7769 z M 113.2133,138.11 C 112.6604,139.8481 112.9823,141.5508 113.2133,143.2998 C 113.843,142.9562 114.2034,138.7492 113.2133,138.11 z M 111.4541,154.1192 C 111.1902,155.0868 111.2781,156.4062 111.7179,157.2858 C 111.8499,156.978 112.1138,154.0312 111.4541,154.1192 z M 114.7036,184.8357 C 112.0719,181.2855 113.1598,171.0857 113.2895,167.0035 C 114.36,166.8309 114.8017,167.9877 114.8515,169.9175 C 114.9793,174.8725 114.7273,179.9561 114.7036,184.8357 L 114.7036,184.8357 z M 73.4308,227.9398 C 76.866,224.5046 83.2636,225.3775 87.5083,222.8207 C 89.0232,221.9081 91.297,220.8866 92.1888,218.7228 C 92.9748,216.8156 93.9683,215.8831 95.389,215.7482 C 94.4695,216.5478 93.5197,220.7227 92.4927,222.1471 C 89.8503,225.8119 87.4405,225.1763 83.7363,225.8517 C 83.0557,225.9758 73.4308,227.2743 73.4308,227.9398 L 73.4308,227.9398 z "
   style="fill:#785050" />
   <path
   id="_73677072"
   class="fil4"
   d="M 98.9886,261.22 C 101.5266,261.133 104.3664,261.815 106.9066,261.815 C 109.5604,261.815 111.9321,261.22 114.4941,261.22 C 117.6665,261.2932 120.839,262.6183 124.0967,262.4397 C 128.3259,262.1811 132.6404,260.8744 136.8783,259.824 C 138.8912,259.2908 132.6404,260.689 130.6253,260.689 C 126.3043,260.6067 122.0729,259.5585 117.8372,259.4692 C 114.2315,259.38 110.6128,260.0735 107.1012,260.0735 C 103.7341,260.0735 100.3845,259.0322 97.2121,259.4692 C 94.4028,259.824 93.147,260.7691 90.7556,262.4237 C 89.2569,263.5909 98.4767,261.2589 98.9886,261.22 L 98.9886,261.22 z M 135.5163,253.7525 C 136.1748,251.8759 140.1415,252.0567 143.4124,252.3863 C 144.0622,252.4503 145.7885,252.9766 147.3681,253.0773 C 148.8514,253.1712 150.1948,252.8577 150.9365,252.5029 C 153.0543,251.4846 156.1415,253.4046 157.9596,253.2581 C 153.8683,254.0134 154.0105,254.1209 153.3366,254.2034 C 150.6193,254.5375 148.0311,254.6885 145.3421,254.4138 C 142.2725,254.1072 138.4875,253.0911 135.5163,253.7525 L 135.5163,253.7525 z "
   style="fill:#0a0b0c;fill-rule:nonzero" />
  </g>
 </g>
</svg>